<svg width="100" height="100" xmlns="http://www.w3.org/2000/svg">
  <path d="M50 80 C50 60 30 50 30 30 C30 10 50 10 50 30 C50 50 70 50 70 30" stroke="#9bd" stroke-width="6" fill="none"/>
  <path d="M40 30 L30 20 M60 30 L70 20" stroke="#9bd" stroke-width="4" fill="none"/>
  <path d="M35 50 L25 45 M65 50 L75 45" stroke="#9bd" stroke-width="4" fill="none"/>
  <circle cx="50" cy="15" r="10" fill="#ace"/>
  <circle cx="30" cy="20" r="8" fill="#ace"/>
  <circle cx="70" cy="20" r="8" fill="#ace"/>
  <circle cx="25" cy="45" r="6" fill="#ace"/>
  <circle cx="75" cy="45" r="6" fill="#ace"/>
  <path d="M45 15 L55 15" stroke="#79b" stroke-width="1.5" fill="none"/>
  <path d="M25 20 L35 20" stroke="#79b" stroke-width="1.5" fill="none"/>
  <path d="M65 20 L75 20" stroke="#79b" stroke-width="1.5" fill="none"/>
</svg>
