<svg width="100" height="100" xmlns="http://www.w3.org/2000/svg">
    <rect x="10" y="60" width="80" height="30" fill="#964"/>
    <path d="M10 60 Q30 50 50 60 Q70 50 90 60" fill="#a75"/>
    <circle cx="20" cy="55" r="3" fill="#742"/>
    <circle cx="35" cy="52" r="2" fill="#742"/>
    <circle cx="50" cy="57" r="4" fill="#742"/>
    <circle cx="65" cy="53" r="3" fill="#742"/>
    <circle cx="80" cy="56" r="2" fill="#742"/>
    <path d="M15 70 L25 70 M35 75 L55 75 M70 72 L85 72" stroke="#742" stroke-width="1.5" fill="none"/>
    <path d="M20 45 Q30 40 40 45" stroke="#6b8" stroke-width="2" fill="none"/>
    <path d="M60 45 Q70 40 80 45" stroke="#6b8" stroke-width="2" fill="none"/>
    <circle cx="30" cy="40" r="5" fill="#7c9"/>
    <circle cx="70" cy="40" r="5" fill="#7c9"/>
</svg>
