<svg width="100" height="100" xmlns="http://www.w3.org/2000/svg">
    <rect x="20" y="40" width="60" height="30" fill="#964"/>
    <path d="M20 40 Q50 30 80 40" fill="#a75"/>
    <circle cx="30" cy="35" r="3" fill="#742"/>
    <circle cx="45" cy="32" r="2" fill="#742"/>
    <circle cx="60" cy="37" r="4" fill="#742"/>
    <circle cx="75" cy="33" r="3" fill="#742"/>
    <path d="M25 50 L35 50 M45 55 L65 55 M70 52 L75 52" stroke="#742" stroke-width="1.5" fill="none"/>
    <path d="M30 45 L40 45 M50 45 L60 45 M65 45 L75 45" stroke="#742" stroke-width="1.5" fill="none"/>
    <path d="M25 60 L35 60 M45 60 L55 60 M65 60 L75 60" stroke="#742" stroke-width="1.5" fill="none"/>
</svg>
