<svg width="100" height="100" xmlns="http://www.w3.org/2000/svg">
    <path d="M50 90 C50 70 30 60 30 40 C30 20 50 20 50 40 C50 60 70 60 70 40" stroke="#6b8" stroke-width="6" fill="none"/>
    <path d="M40 40 L30 30 M60 40 L70 30" stroke="#6b8" stroke-width="4" fill="none"/>
    <path d="M35 60 L25 55 M65 60 L75 55" stroke="#6b8" stroke-width="4" fill="none"/>
    <ellipse cx="30" cy="30" rx="5" ry="8" fill="#7c9" transform="rotate(-20 30 30)"/>
    <ellipse cx="70" cy="30" rx="5" ry="8" fill="#7c9" transform="rotate(20 70 30)"/>
    <ellipse cx="25" cy="55" rx="4" ry="6" fill="#7c9" transform="rotate(-10 25 55)"/>
    <ellipse cx="75" cy="55" rx="4" ry="6" fill="#7c9" transform="rotate(10 75 55)"/>
</svg>
